<svg xmlns="http://www.w3.org/2000/svg" xmlns:xlink="http://www.w3.org/1999/xlink" version="1.1" x="0px" y="0px" viewBox="0 0 100 125" enable-background="new 0 0 100 100" xml:space="preserve"><path fill="#10b981" d="M50,5.22C25.27,5.22,5.22,25.269,5.22,50c0,24.731,20.05,44.78,44.78,44.78c24.731,0,44.78-20.049,44.78-44.78  C94.78,25.269,74.731,5.22,50,5.22z M30.295,34.232c3.33,0,6.029,2.699,6.029,6.029s-2.699,6.029-6.029,6.029  s-6.029-2.699-6.029-6.029S26.965,34.232,30.295,34.232z M74.401,70.472c-5.179,4.44-14.301,7.093-24.402,7.093  c-10.101,0-19.224-2.652-24.401-7.093c-0.777-0.668-0.867-1.839-0.201-2.616c0.667-0.778,1.84-0.867,2.616-0.201  c4.459,3.824,12.884,6.2,21.986,6.2c9.104,0,17.528-2.376,21.987-6.2c0.776-0.667,1.949-0.578,2.616,0.201  C75.27,68.633,75.18,69.804,74.401,70.472z M69.706,46.29c-3.33,0-6.029-2.699-6.029-6.029s2.699-6.029,6.029-6.029  c3.329,0,6.028,2.699,6.028,6.029S73.035,46.29,69.706,46.29z"/> </svg>