<svg xmlns="http://www.w3.org/2000/svg" xmlns:xlink="http://www.w3.org/1999/xlink" t="1629619375604" class="icon" viewBox="0 0 1024 1024" version="1.1" p-id="3265" width="200" height="200"><defs><style type="text/css"/></defs><path d="M111.002168 488.243005H24.166205A23.86199 23.86199 0 0 0 0.205215 512.204995a23.86199 23.86199 0 0 0 23.96099 23.96099h86.835963a23.86199 23.86199 0 0 0 23.96099-23.96099 23.86199 23.86199 0 0 0-23.96099-23.96199z m96.04996-247.602896c9.216996 9.215996 24.16699 9.215996 33.792986 0 9.215996-9.625996 9.215996-24.57599 0-33.791986l-56.729976-56.729976c-9.624996-9.624996-24.57599-9.624996-33.791986 0-9.624996 9.215996-9.624996 24.37199 0 33.791986l56.729976 56.729976z m6.963997 536.165775L150.323152 840.499857c-9.624996 9.215996-9.624996 24.16699 0 33.791986 9.215996 9.215996 24.37099 9.215996 33.791986 0l63.692973-63.692973c9.215996-9.624996 9.215996-24.57599 0-33.791986-9.215996-9.624996-24.57599-9.624996-33.791986 0z m298.188875-654.744725a23.86199 23.86199 0 0 0 23.96099-23.96199V23.9622A23.86199 23.86199 0 0 0 512.205 0.00021a23.86199 23.86199 0 0 0-23.96199 23.96199v74.341969c0 13.106994 10.649996 23.75699 23.96199 23.75699z m487.628795 366.181846h-76.185968a23.86199 23.86199 0 0 0-23.96199 23.96199 23.86199 23.86199 0 0 0 23.96199 23.96099h76.185968a23.86199 23.86199 0 0 0 23.96099-23.96099c0-13.311994-10.853995-23.96199-23.96099-23.96199z m-487.629795 399.154832c-13.310994 0-23.95999 11.059995-23.95999 23.96199v88.677963a23.86199 23.86199 0 0 0 23.95999 23.96199 23.86199 23.86199 0 0 0 23.96199-23.96199V911.359827c0-12.901995-10.649996-23.96199-23.96099-23.96199z m327.885862-737.27969l-51.404978 51.199978c-9.215996 9.625996-9.215996 24.57599 0 33.791986 9.624996 9.625996 24.57599 9.625996 33.791986 0l51.404978-51.199978c9.215996-9.624996 9.215996-24.57599 0-33.791986-9.420996-9.624996-24.57599-9.624996-33.791986 0z m-24.985989 631.398735c-9.215996-9.215996-24.37099-9.215996-33.791986 0-9.215996 9.624996-9.215996 24.57599 0 33.791986l58.777975 58.776975c9.215996 9.215996 24.36999 9.215996 33.791986 0 9.215996-9.624996 9.215996-24.57599 0-33.791986l-58.777975-58.776975zM517.323998 194.970128c-171.006928 0-310.06587 138.649942-310.06587 309.86187 0 171.417928 139.058942 310.27187 310.06687 310.27187s309.65687-138.649942 309.65687-310.27187c0-171.007928-138.649942-309.86187-309.65687-309.86187z m0 566.271762c-141.515941 0-256.408892-114.892952-256.408893-256.409892 0-123.903948 87.859963-227.327905 204.799914-251.289894-17.612993 34.611985-27.237989 73.932969-27.237988 115.097951 0 141.72194 114.687952 256.409892 256.409892 256.409893 17.611993 0 35.019985-1.843999 51.403979-5.119998-42.188982 83.967965-129.023946 141.311941-228.965904 141.31194z" p-id="3266"/></svg>